<svg width="4017.81875px" height="366.8px" xmlns="http://www.w3.org/2000/svg" viewBox="-1758.909375 -108.4 4017.81875 366.8" style="background: rgba(0, 0, 0, 0);" preserveAspectRatio="xMidYMid"><defs><filter id="editing-extrude-glow"><feFlood flood-color="#333333" result="flood-1"></feFlood><feMorphology operator="erode" radius="1" in="SourceAlpha" result="erode"></feMorphology><feComposite operator="in" in="flood-1" in2="erode" result="comp1"></feComposite><feConvolveMatrix order="3,3" divisor="1" in="comp1" result="convolve" kernelMatrix="0 0 0 1 1 1 0 0 0"></feConvolveMatrix><feOffset dx="-3" dy="0" in="convolve" result="extrude"></feOffset><feComposite operator="in" in="flood-1" in2="extrude" result="comp-extrude"></feComposite><feFlood flood-color="#000000" result="flood-2"></feFlood><feComposite operator="in" in="flood-2" in2="SourceAlpha" result="comp2"></feComposite><feMorphology operator="dilate" radius="1" in="comp2" result="dilate"></feMorphology><feOffset dx="-4.5" dy="0" in="dilate" result="offset"></feOffset><feGaussianBlur in="offset" stdDeviation="5.8" result="blur"></feGaussianBlur><feComponentTransfer in="blur" result="shadow"><feFuncA type="linear" slope="0.8" intercept="-0.2"></feFuncA></feComponentTransfer><feMerge><feMergeNode in="shadow"></feMergeNode><feMergeNode in="comp-extrude"></feMergeNode><feMergeNode in="SourceGraphic"></feMergeNode></feMerge></filter></defs><g filter="url(#editing-extrude-glow)"><g transform="translate(-1224.4146871566772, 173.58499908447266)"><path d="M154.30-92.97L154.30-81.45L154.30-81.45Q154.30-72.75 152.15-65.92L152.15-65.92L152.15-65.92Q150-59.08 146.34-53.86L146.34-53.86L146.34-53.86Q142.68-48.63 137.89-44.92L137.89-44.92L137.89-44.92Q133.11-41.21 127.88-38.87L127.88-38.87L127.88-38.87Q122.66-36.52 117.33-35.45L117.33-35.45L117.33-35.45Q112.01-34.38 107.32-34.38L107.32-34.38L49.90-34.38L49.90-59.77L107.32-59.77L107.32-59.77Q112.21-60.16 116.16-61.77L116.16-61.77L116.16-61.77Q120.12-63.38 122.95-66.11L122.95-66.11L122.95-66.11Q125.78-68.85 127.34-72.71L127.34-72.71L127.34-72.71Q128.91-76.56 128.91-81.45L128.91-81.45L128.91-92.97L128.91-92.97Q128.42-97.75 126.86-101.76L126.86-101.76L126.86-101.76Q125.29-105.76 122.61-108.59L122.61-108.59L122.61-108.59Q119.92-111.43 116.11-113.04L116.11-113.04L116.11-113.04Q112.30-114.65 107.32-114.65L107.32-114.65L50.10-114.65L50.10-114.65Q45.02-114.65 42.38-112.01L42.38-112.01L42.38-112.01Q39.75-109.38 39.75-104.39L39.75-104.39L39.75 0L14.36 0L14.36-104.39L14.36-104.39Q14.36-114.16 17.92-121.00L17.92-121.00L17.92-121.00Q21.48-127.83 26.81-132.03L26.81-132.03L26.81-132.03Q32.13-136.23 38.38-138.13L38.38-138.13L38.38-138.13Q44.63-140.04 49.90-140.04L49.90-140.04L107.32-140.04L107.32-140.04Q115.92-140.04 122.75-137.84L122.75-137.84L122.75-137.84Q129.59-135.64 134.81-131.98L134.81-131.98L134.81-131.98Q140.04-128.32 143.70-123.54L143.70-123.54L143.70-123.54Q147.36-118.75 149.76-113.53L149.76-113.53L149.76-113.53Q152.15-108.30 153.22-102.98L153.22-102.98L153.22-102.98Q154.30-97.66 154.30-92.97L154.30-92.97ZM286.72-70.61L286.72-70.61L286.72-70.61Q286.72-65.33 284.86-59.23L284.86-59.23L284.86-59.23Q283.01-53.13 278.86-47.90L278.86-47.90L278.86-47.90Q274.71-42.68 268.02-39.16L268.02-39.16L268.02-39.16Q261.33-35.64 251.76-35.64L251.76-35.64L205.96-35.64L205.96-59.77L251.76-59.77L251.76-59.77Q256.93-59.77 259.77-62.94L259.77-62.94L259.77-62.94Q262.60-66.11 262.60-70.80L262.60-70.80L262.60-70.80Q262.60-75.78 259.42-78.61L259.42-78.61L259.42-78.61Q256.25-81.45 251.76-81.45L251.76-81.45L205.96-81.45L205.96-81.45Q200.78-81.45 197.95-78.27L197.95-78.27L197.95-78.27Q195.12-75.10 195.12-70.41L195.12-70.41L195.12-34.96L195.12-34.96Q195.12-29.88 198.29-27.05L198.29-27.05L198.29-27.05Q201.46-24.22 206.15-24.22L206.15-24.22L251.76-24.22L251.76 0L205.96 0L205.96 0Q200.68 0 194.58-1.86L194.58-1.86L194.58-1.86Q188.48-3.71 183.25-7.86L183.25-7.86L183.25-7.86Q178.03-12.01 174.51-18.70L174.51-18.70L174.51-18.70Q171.00-25.39 171.00-34.96L171.00-34.96L171.00-70.61L171.00-70.61Q171.00-75.88 172.85-81.98L172.85-81.98L172.85-81.98Q174.71-88.09 178.86-93.31L178.86-93.31L178.86-93.31Q183.01-98.54 189.70-102.05L189.70-102.05L189.70-102.05Q196.39-105.57 205.96-105.57L205.96-105.57L251.76-105.57L251.76-105.57Q257.03-105.57 263.13-103.71L263.13-103.71L263.13-103.71Q269.24-101.86 274.46-97.71L274.46-97.71L274.46-97.71Q279.69-93.55 283.20-86.87L283.20-86.87L283.20-86.87Q286.72-80.18 286.72-70.61ZM412.01-70.61L412.01-34.96L412.01-34.96Q412.01-29.69 410.16-23.58L410.16-23.58L410.16-23.58Q408.30-17.48 404.15-12.26L404.15-12.26L404.15-12.26Q400-7.03 393.31-3.52L393.31-3.52L393.31-3.52Q386.62 0 377.05 0L377.05 0L331.25 0L331.25 0Q325.98 0 319.87-1.86L319.87-1.86L319.87-1.86Q313.77-3.71 308.54-7.86L308.54-7.86L308.54-7.86Q303.32-12.01 299.80-18.70L299.80-18.70L299.80-18.70Q296.29-25.39 296.29-34.96L296.29-34.96L296.29-34.96Q296.29-40.23 298.14-46.39L298.14-46.39L298.14-46.39Q300-52.54 304.15-57.76L304.15-57.76L304.15-57.76Q308.30-62.99 314.99-66.50L314.99-66.50L314.99-66.50Q321.68-70.02 331.25-70.02L331.25-70.02L377.05-70.02L377.05-45.80L331.25-45.80L331.25-45.80Q326.07-45.80 323.24-42.63L323.24-42.63L323.24-42.63Q320.41-39.45 320.41-34.77L320.41-34.77L320.41-34.77Q320.41-29.79 323.68-27.00L323.68-27.00L323.68-27.00Q326.95-24.22 331.45-24.22L331.45-24.22L377.05-24.22L377.05-24.22Q382.23-24.22 385.06-27.34L385.06-27.34L385.06-27.34Q387.89-30.47 387.89-35.16L387.89-35.16L387.89-70.61L387.89-70.61Q387.89-75.59 384.81-78.52L384.81-78.52L384.81-78.52Q381.74-81.45 377.05-81.45L377.05-81.45L321.29-81.45L321.29-105.57L377.05-105.57L377.05-105.57Q382.32-105.57 388.43-103.71L388.43-103.71L388.43-103.71Q394.53-101.86 399.76-97.71L399.76-97.71L399.76-97.71Q404.98-93.55 408.50-86.87L408.50-86.87L408.50-86.87Q412.01-80.18 412.01-70.61L412.01-70.61ZM497.95-57.62L557.71 0L521.09 0L469.92-49.41L469.92-49.41Q465.63-53.32 465.92-59.18L465.92-59.18L465.92-59.18Q466.11-61.91 467.33-64.31L467.33-64.31L467.33-64.31Q468.55-66.70 470.70-68.36L470.70-68.36L517.09-105.76L557.71-105.76L497.95-57.62ZM459.47-150.20L459.47 0L434.08 0L434.08-150.20L459.47-150.20ZM779.39-92.97L779.39-81.45L779.39-81.45Q779.39-72.75 777.25-65.92L777.25-65.92L777.25-65.92Q775.10-59.08 771.44-53.86L771.44-53.86L771.44-53.86Q767.77-48.63 762.99-44.92L762.99-44.92L762.99-44.92Q758.20-41.21 752.98-38.87L752.98-38.87L752.98-38.87Q747.75-36.52 742.43-35.45L742.43-35.45L742.43-35.45Q737.11-34.38 732.42-34.38L732.42-34.38L675-34.38L675-59.77L732.42-59.77L732.42-59.77Q737.30-60.16 741.26-61.77L741.26-61.77L741.26-61.77Q745.21-63.38 748.05-66.11L748.05-66.11L748.05-66.11Q750.88-68.85 752.44-72.71L752.44-72.71L752.44-72.71Q754.00-76.56 754.00-81.45L754.00-81.45L754.00-92.97L754.00-92.97Q753.52-97.75 751.95-101.76L751.95-101.76L751.95-101.76Q750.39-105.76 747.71-108.59L747.71-108.59L747.71-108.59Q745.02-111.43 741.21-113.04L741.21-113.04L741.21-113.04Q737.40-114.65 732.42-114.65L732.42-114.65L675.20-114.65L675.20-114.65Q670.12-114.65 667.48-112.01L667.48-112.01L667.48-112.01Q664.84-109.38 664.84-104.39L664.84-104.39L664.84 0L639.45 0L639.45-104.39L639.45-104.39Q639.45-114.16 643.02-121.00L643.02-121.00L643.02-121.00Q646.58-127.83 651.90-132.03L651.90-132.03L651.90-132.03Q657.23-136.23 663.48-138.13L663.48-138.13L663.48-138.13Q669.73-140.04 675-140.04L675-140.04L732.42-140.04L732.42-140.04Q741.02-140.04 747.85-137.84L747.85-137.84L747.85-137.84Q754.69-135.64 759.91-131.98L759.91-131.98L759.91-131.98Q765.14-128.32 768.80-123.54L768.80-123.54L768.80-123.54Q772.46-118.75 774.85-113.53L774.85-113.53L774.85-113.53Q777.25-108.30 778.32-102.98L778.32-102.98L778.32-102.98Q779.39-97.66 779.39-92.97L779.39-92.97ZM911.82-70.61L911.82-70.61L911.82-70.61Q911.82-65.33 909.96-59.23L909.96-59.23L909.96-59.23Q908.11-53.13 903.96-47.90L903.96-47.90L903.96-47.90Q899.80-42.68 893.12-39.16L893.12-39.16L893.12-39.16Q886.43-35.64 876.86-35.64L876.86-35.64L831.05-35.64L831.05-59.77L876.86-59.77L876.86-59.77Q882.03-59.77 884.86-62.94L884.86-62.94L884.86-62.94Q887.70-66.11 887.70-70.80L887.70-70.80L887.70-70.80Q887.70-75.78 884.52-78.61L884.52-78.61L884.52-78.61Q881.35-81.45 876.86-81.45L876.86-81.45L831.05-81.45L831.05-81.45Q825.88-81.45 823.05-78.27L823.05-78.27L823.05-78.27Q820.21-75.10 820.21-70.41L820.21-70.41L820.21-34.96L820.21-34.96Q820.21-29.88 823.39-27.05L823.39-27.05L823.39-27.05Q826.56-24.22 831.25-24.22L831.25-24.22L876.86-24.22L876.86 0L831.05 0L831.05 0Q825.78 0 819.68-1.86L819.68-1.86L819.68-1.86Q813.57-3.71 808.35-7.86L808.35-7.86L808.35-7.86Q803.13-12.01 799.61-18.70L799.61-18.70L799.61-18.70Q796.09-25.39 796.09-34.96L796.09-34.96L796.09-70.61L796.09-70.61Q796.09-75.88 797.95-81.98L797.95-81.98L797.95-81.98Q799.80-88.09 803.96-93.31L803.96-93.31L803.96-93.31Q808.11-98.54 814.79-102.05L814.79-102.05L814.79-102.05Q821.48-105.57 831.05-105.57L831.05-105.57L876.86-105.57L876.86-105.57Q882.13-105.57 888.23-103.71L888.23-103.71L888.23-103.71Q894.34-101.86 899.56-97.71L899.56-97.71L899.56-97.71Q904.79-93.55 908.30-86.87L908.30-86.87L908.30-86.87Q911.82-80.18 911.82-70.61ZM1021.29-105.57L1021.29-80.18L964.16-80.18L964.16-80.18Q958.98-80.18 956.35-77.59L956.35-77.59L956.35-77.59Q953.71-75 953.71-70.02L953.71-70.02L953.71 0L928.32 0L928.32-70.02L928.32-70.02Q928.32-76.56 929.98-81.74L929.98-81.74L929.98-81.74Q931.64-86.91 934.42-90.87L934.42-90.87L934.42-90.87Q937.21-94.82 940.82-97.61L940.82-97.61L940.82-97.61Q944.43-100.39 948.39-102.15L948.39-102.15L948.39-102.15Q952.34-103.91 956.40-104.74L956.40-104.74L956.40-104.74Q960.45-105.57 963.96-105.57L963.96-105.57L1021.29-105.57ZM1131.45-105.57L1131.45-80.18L1074.02-80.18L1074.02-105.57L1131.45-105.57ZM1131.45-151.37L1131.45-125.98L1074.22-125.98L1074.22-125.98Q1069.04-125.98 1066.41-123.39L1066.41-123.39L1066.41-123.39Q1063.77-120.80 1063.77-115.82L1063.77-115.82L1063.77 0L1038.38 0L1038.38-115.82L1038.38-115.82Q1038.38-122.36 1040.04-127.54L1040.04-127.54L1040.04-127.54Q1041.70-132.71 1044.48-136.67L1044.48-136.67L1044.48-136.67Q1047.27-140.63 1050.88-143.41L1050.88-143.41L1050.88-143.41Q1054.49-146.19 1058.45-147.95L1058.45-147.95L1058.45-147.95Q1062.40-149.71 1066.41-150.54L1066.41-150.54L1066.41-150.54Q1070.41-151.37 1074.02-151.37L1074.02-151.37L1131.45-151.37ZM1262.50-70.02L1262.50-35.64L1262.50-35.64Q1262.50-29.10 1260.84-23.88L1260.84-23.88L1260.84-23.88Q1259.18-18.65 1256.45-14.70L1256.45-14.70L1256.45-14.70Q1253.71-10.74 1250.10-7.96L1250.10-7.96L1250.10-7.96Q1246.48-5.18 1242.53-3.42L1242.53-3.42L1242.53-3.42Q1238.57-1.66 1234.52-0.83L1234.52-0.83L1234.52-0.83Q1230.47 0 1226.86 0L1226.86 0L1181.05 0L1181.05 0Q1175.78 0 1169.53-1.86L1169.53-1.86L1169.53-1.86Q1163.28-3.71 1157.96-7.96L1157.96-7.96L1157.96-7.96Q1152.64-12.21 1149.07-18.99L1149.07-18.99L1149.07-18.99Q1145.51-25.78 1145.51-35.64L1145.51-35.64L1145.51-70.02L1145.51-70.02Q1145.51-79.79 1149.07-86.57L1149.07-86.57L1149.07-86.57Q1152.64-93.36 1157.96-97.61L1157.96-97.61L1157.96-97.61Q1163.28-101.86 1169.53-103.71L1169.53-103.71L1169.53-103.71Q1175.78-105.57 1181.05-105.57L1181.05-105.57L1226.86-105.57L1226.86-105.57Q1236.62-105.57 1243.46-102.05L1243.46-102.05L1243.46-102.05Q1250.29-98.54 1254.49-93.21L1254.49-93.21L1254.49-93.21Q1258.69-87.89 1260.60-81.64L1260.60-81.64L1260.60-81.64Q1262.50-75.39 1262.50-70.02L1262.50-70.02ZM1237.11-35.64L1237.11-69.82L1237.11-69.82Q1237.11-75.10 1234.47-77.64L1234.47-77.64L1234.47-77.64Q1231.84-80.18 1226.86-80.18L1226.86-80.18L1181.25-80.18L1181.25-80.18Q1176.17-80.18 1173.54-77.59L1173.54-77.59L1173.54-77.59Q1170.90-75 1170.90-70.02L1170.90-70.02L1170.90-35.64L1170.90-35.64Q1170.90-30.66 1173.54-28.03L1173.54-28.03L1173.54-28.03Q1176.17-25.39 1181.25-25.39L1181.25-25.39L1226.86-25.39L1226.86-25.39Q1232.03-25.39 1234.57-28.03L1234.57-28.03L1234.57-28.03Q1237.11-30.66 1237.11-35.64L1237.11-35.64ZM1376.46-105.57L1376.46-80.18L1319.34-80.18L1319.34-80.18Q1314.16-80.18 1311.52-77.59L1311.52-77.59L1311.52-77.59Q1308.89-75 1308.89-70.02L1308.89-70.02L1308.89 0L1283.50 0L1283.50-70.02L1283.50-70.02Q1283.50-76.56 1285.16-81.74L1285.16-81.74L1285.16-81.74Q1286.82-86.91 1289.60-90.87L1289.60-90.87L1289.60-90.87Q1292.38-94.82 1296.00-97.61L1296.00-97.61L1296.00-97.61Q1299.61-100.39 1303.56-102.15L1303.56-102.15L1303.56-102.15Q1307.52-103.91 1311.57-104.74L1311.57-104.74L1311.57-104.74Q1315.63-105.57 1319.14-105.57L1319.14-105.57L1376.46-105.57ZM1487.40-70.02L1487.40 0L1462.01 0L1462.01-70.02L1462.01-70.02Q1462.01-75 1459.38-77.59L1459.38-77.59L1459.38-77.59Q1456.74-80.18 1451.56-80.18L1451.56-80.18L1418.55-80.18L1418.55 0L1393.16 0L1393.16-92.97L1393.16-92.97Q1393.16-95.61 1394.14-97.90L1394.14-97.90L1394.14-97.90Q1395.12-100.20 1396.88-101.90L1396.88-101.90L1396.88-101.90Q1398.63-103.61 1400.98-104.59L1400.98-104.59L1400.98-104.59Q1403.32-105.57 1405.96-105.57L1405.96-105.57L1451.76-105.57L1451.76-105.57Q1457.03-105.57 1463.09-103.71L1463.09-103.71L1463.09-103.71Q1469.14-101.86 1474.61-97.75L1474.61-97.75L1474.61-105.57L1508.98-105.57L1508.98-105.57Q1512.60-105.57 1516.60-104.74L1516.60-104.74L1516.60-104.74Q1520.61-103.91 1524.56-102.15L1524.56-102.15L1524.56-102.15Q1528.52-100.39 1532.13-97.61L1532.13-97.61L1532.13-97.61Q1535.74-94.82 1538.48-90.87L1538.48-90.87L1538.48-90.87Q1541.21-86.91 1542.87-81.74L1542.87-81.74L1542.87-81.74Q1544.53-76.56 1544.53-70.02L1544.53-70.02L1544.53 0L1519.14 0L1519.14-70.02L1519.14-70.02Q1519.14-75 1516.65-77.59L1516.65-77.59L1516.65-77.59Q1514.16-80.18 1508.98-80.18L1508.98-80.18L1486.13-80.18L1486.13-80.18Q1487.40-75.49 1487.40-70.02L1487.40-70.02ZM1676.86-70.61L1676.86-34.96L1676.86-34.96Q1676.86-29.69 1675-23.58L1675-23.58L1675-23.58Q1673.14-17.48 1668.99-12.26L1668.99-12.26L1668.99-12.26Q1664.84-7.03 1658.15-3.52L1658.15-3.52L1658.15-3.52Q1651.46 0 1641.89 0L1641.89 0L1596.09 0L1596.09 0Q1590.82 0 1584.72-1.86L1584.72-1.86L1584.72-1.86Q1578.61-3.71 1573.39-7.86L1573.39-7.86L1573.39-7.86Q1568.16-12.01 1564.65-18.70L1564.65-18.70L1564.65-18.70Q1561.13-25.39 1561.13-34.96L1561.13-34.96L1561.13-34.96Q1561.13-40.23 1562.99-46.39L1562.99-46.39L1562.99-46.39Q1564.84-52.54 1568.99-57.76L1568.99-57.76L1568.99-57.76Q1573.14-62.99 1579.83-66.50L1579.83-66.50L1579.83-66.50Q1586.52-70.02 1596.09-70.02L1596.09-70.02L1641.89-70.02L1641.89-45.80L1596.09-45.80L1596.09-45.80Q1590.92-45.80 1588.09-42.63L1588.09-42.63L1588.09-42.63Q1585.25-39.45 1585.25-34.77L1585.25-34.77L1585.25-34.77Q1585.25-29.79 1588.53-27.00L1588.53-27.00L1588.53-27.00Q1591.80-24.22 1596.29-24.22L1596.29-24.22L1641.89-24.22L1641.89-24.22Q1647.07-24.22 1649.90-27.34L1649.90-27.34L1649.90-27.34Q1652.73-30.47 1652.73-35.16L1652.73-35.16L1652.73-70.61L1652.73-70.61Q1652.73-75.59 1649.66-78.52L1649.66-78.52L1649.66-78.52Q1646.58-81.45 1641.89-81.45L1641.89-81.45L1586.13-81.45L1586.13-105.57L1641.89-105.57L1641.89-105.57Q1647.17-105.57 1653.27-103.71L1653.27-103.71L1653.27-103.71Q1659.38-101.86 1664.60-97.71L1664.60-97.71L1664.60-97.71Q1669.82-93.55 1673.34-86.87L1673.34-86.87L1673.34-86.87Q1676.86-80.18 1676.86-70.61L1676.86-70.61ZM1815.53-58.59L1815.53 0L1790.14 0L1790.14-58.59L1790.14-58.59Q1790.14-63.57 1788.43-67.53L1788.43-67.53L1788.43-67.53Q1786.72-71.48 1783.79-74.32L1783.79-74.32L1783.79-74.32Q1780.86-77.15 1776.90-78.66L1776.90-78.66L1776.90-78.66Q1772.95-80.18 1768.36-80.18L1768.36-80.18L1723.93-80.18L1723.93 0L1698.54 0L1698.54-92.97L1698.54-92.97Q1698.54-95.61 1699.51-97.90L1699.51-97.90L1699.51-97.90Q1700.49-100.20 1702.25-101.90L1702.25-101.90L1702.25-101.90Q1704.00-103.61 1706.35-104.59L1706.35-104.59L1706.35-104.59Q1708.69-105.57 1711.33-105.57L1711.33-105.57L1768.55-105.57L1768.55-105.57Q1773.34-105.57 1778.66-104.49L1778.66-104.49L1778.66-104.49Q1783.98-103.42 1789.21-101.03L1789.21-101.03L1789.21-101.03Q1794.43-98.63 1799.17-94.97L1799.17-94.97L1799.17-94.97Q1803.91-91.31 1807.57-86.08L1807.57-86.08L1807.57-86.08Q1811.23-80.86 1813.38-74.02L1813.38-74.02L1813.38-74.02Q1815.53-67.19 1815.53-58.59L1815.53-58.59ZM1940.04-25.39L1940.04 0L1871.19 0L1871.19 0Q1865.92 0 1859.67-1.86L1859.67-1.86L1859.67-1.86Q1853.42-3.71 1848.10-7.96L1848.10-7.96L1848.10-7.96Q1842.77-12.21 1839.21-18.99L1839.21-18.99L1839.21-18.99Q1835.64-25.78 1835.64-35.64L1835.64-35.64L1835.64-70.02L1835.64-70.02Q1835.64-73.63 1836.47-77.64L1836.47-77.64L1836.47-77.64Q1837.30-81.64 1839.06-85.60L1839.06-85.60L1839.06-85.60Q1840.82-89.55 1843.60-93.16L1843.60-93.16L1843.60-93.16Q1846.39-96.78 1850.34-99.51L1850.34-99.51L1850.34-99.51Q1854.30-102.25 1859.47-103.91L1859.47-103.91L1859.47-103.91Q1864.65-105.57 1871.19-105.57L1871.19-105.57L1940.04-105.57L1940.04-80.18L1871.19-80.18L1871.19-80.18Q1866.21-80.18 1863.62-77.64L1863.62-77.64L1863.62-77.64Q1861.04-75.10 1861.04-69.82L1861.04-69.82L1861.04-35.64L1861.04-35.64Q1861.04-30.66 1863.67-28.03L1863.67-28.03L1863.67-28.03Q1866.31-25.39 1871.39-25.39L1871.39-25.39L1940.04-25.39ZM2073.83-70.61L2073.83-70.61L2073.83-70.61Q2073.83-65.33 2071.97-59.23L2071.97-59.23L2071.97-59.23Q2070.12-53.13 2065.97-47.90L2065.97-47.90L2065.97-47.90Q2061.82-42.68 2055.13-39.16L2055.13-39.16L2055.13-39.16Q2048.44-35.64 2038.87-35.64L2038.87-35.64L1993.07-35.64L1993.07-59.77L2038.87-59.77L2038.87-59.77Q2044.04-59.77 2046.88-62.94L2046.88-62.94L2046.88-62.94Q2049.71-66.11 2049.71-70.80L2049.71-70.80L2049.71-70.80Q2049.71-75.78 2046.53-78.61L2046.53-78.61L2046.53-78.61Q2043.36-81.45 2038.87-81.45L2038.87-81.45L1993.07-81.45L1993.07-81.45Q1987.89-81.45 1985.06-78.27L1985.06-78.27L1985.06-78.27Q1982.23-75.10 1982.23-70.41L1982.23-70.41L1982.23-34.96L1982.23-34.96Q1982.23-29.88 1985.40-27.05L1985.40-27.05L1985.40-27.05Q1988.57-24.22 1993.26-24.22L1993.26-24.22L2038.87-24.22L2038.87 0L1993.07 0L1993.07 0Q1987.79 0 1981.69-1.86L1981.69-1.86L1981.69-1.86Q1975.59-3.71 1970.36-7.86L1970.36-7.86L1970.36-7.86Q1965.14-12.01 1961.62-18.70L1961.62-18.70L1961.62-18.70Q1958.11-25.39 1958.11-34.96L1958.11-34.96L1958.11-70.61L1958.11-70.61Q1958.11-75.88 1959.96-81.98L1959.96-81.98L1959.96-81.98Q1961.82-88.09 1965.97-93.31L1965.97-93.31L1965.97-93.31Q1970.12-98.54 1976.81-102.05L1976.81-102.05L1976.81-102.05Q1983.50-105.57 1993.07-105.57L1993.07-105.57L2038.87-105.57L2038.87-105.57Q2044.14-105.57 2050.24-103.71L2050.24-103.71L2050.24-103.71Q2056.35-101.86 2061.57-97.71L2061.57-97.71L2061.57-97.71Q2066.80-93.55 2070.31-86.87L2070.31-86.87L2070.31-86.87Q2073.83-80.18 2073.83-70.61ZM2296.97-70.02L2296.97-12.79L2296.97-12.79Q2296.97-10.06 2296.00-7.71L2296.00-7.71L2296.00-7.71Q2295.02-5.37 2293.31-3.66L2293.31-3.66L2293.31-3.66Q2291.60-1.95 2289.26-0.98L2289.26-0.98L2289.26-0.98Q2286.91 0 2284.18 0L2284.18 0L2192.58 0L2192.58 0Q2189.06 0 2185.01-0.83L2185.01-0.83L2185.01-0.83Q2180.96-1.66 2177.00-3.42L2177.00-3.42L2177.00-3.42Q2173.05-5.18 2169.43-7.96L2169.43-7.96L2169.43-7.96Q2165.82-10.74 2163.04-14.70L2163.04-14.70L2163.04-14.70Q2160.25-18.65 2158.59-23.88L2158.59-23.88L2158.59-23.88Q2156.93-29.10 2156.93-35.64L2156.93-35.64L2156.93-104.39L2156.93-104.39Q2156.93-107.91 2157.76-111.96L2157.76-111.96L2157.76-111.96Q2158.59-116.02 2160.35-119.97L2160.35-119.97L2160.35-119.97Q2162.11-123.93 2164.94-127.54L2164.94-127.54L2164.94-127.54Q2167.77-131.15 2171.73-133.94L2171.73-133.94L2171.73-133.94Q2175.68-136.72 2180.86-138.38L2180.86-138.38L2180.86-138.38Q2186.04-140.04 2192.58-140.04L2192.58-140.04L2295.80-140.04L2295.80-114.65L2192.58-114.65L2192.58-114.65Q2187.60-114.65 2184.96-112.01L2184.96-112.01L2184.96-112.01Q2182.32-109.38 2182.32-104.20L2182.32-104.20L2182.32-35.64L2182.32-35.64Q2182.32-30.76 2185.01-28.08L2185.01-28.08L2185.01-28.08Q2187.70-25.39 2192.58-25.39L2192.58-25.39L2271.58-25.39L2271.58-57.23L2204.00-57.23L2204.00-82.81L2284.18-82.81L2284.18-82.81Q2286.91-82.81 2289.26-81.79L2289.26-81.79L2289.26-81.79Q2291.60-80.76 2293.31-79.00L2293.31-79.00L2293.31-79.00Q2295.02-77.25 2296.00-74.95L2296.00-74.95L2296.00-74.95Q2296.97-72.66 2296.97-70.02L2296.97-70.02ZM2429.59-70.61L2429.59-34.96L2429.59-34.96Q2429.59-29.69 2427.73-23.58L2427.73-23.58L2427.73-23.58Q2425.88-17.48 2421.73-12.26L2421.73-12.26L2421.73-12.26Q2417.58-7.03 2410.89-3.52L2410.89-3.52L2410.89-3.52Q2404.20 0 2394.63 0L2394.63 0L2348.83 0L2348.83 0Q2343.55 0 2337.45-1.86L2337.45-1.86L2337.45-1.86Q2331.35-3.71 2326.12-7.86L2326.12-7.86L2326.12-7.86Q2320.90-12.01 2317.38-18.70L2317.38-18.70L2317.38-18.70Q2313.87-25.39 2313.87-34.96L2313.87-34.96L2313.87-34.96Q2313.87-40.23 2315.72-46.39L2315.72-46.39L2315.72-46.39Q2317.58-52.54 2321.73-57.76L2321.73-57.76L2321.73-57.76Q2325.88-62.99 2332.57-66.50L2332.57-66.50L2332.57-66.50Q2339.26-70.02 2348.83-70.02L2348.83-70.02L2394.63-70.02L2394.63-45.80L2348.83-45.80L2348.83-45.80Q2343.65-45.80 2340.82-42.63L2340.82-42.63L2340.82-42.63Q2337.99-39.45 2337.99-34.77L2337.99-34.77L2337.99-34.77Q2337.99-29.79 2341.26-27.00L2341.26-27.00L2341.26-27.00Q2344.53-24.22 2349.02-24.22L2349.02-24.22L2394.63-24.22L2394.63-24.22Q2399.80-24.22 2402.64-27.34L2402.64-27.34L2402.64-27.34Q2405.47-30.47 2405.47-35.16L2405.47-35.16L2405.47-70.61L2405.47-70.61Q2405.47-75.59 2402.39-78.52L2402.39-78.52L2402.39-78.52Q2399.32-81.45 2394.63-81.45L2394.63-81.45L2338.87-81.45L2338.87-105.57L2394.63-105.57L2394.63-105.57Q2399.90-105.57 2406.01-103.71L2406.01-103.71L2406.01-103.71Q2412.11-101.86 2417.33-97.71L2417.33-97.71L2417.33-97.71Q2422.56-93.55 2426.07-86.87L2426.07-86.87L2426.07-86.87Q2429.59-80.18 2429.59-70.61L2429.59-70.61ZM2543.65-105.57L2543.65-80.18L2486.52-80.18L2486.52-80.18Q2481.35-80.18 2478.71-77.59L2478.71-77.59L2478.71-77.59Q2476.07-75 2476.07-70.02L2476.07-70.02L2476.07 0L2450.68 0L2450.68-70.02L2450.68-70.02Q2450.68-76.56 2452.34-81.74L2452.34-81.74L2452.34-81.74Q2454.00-86.91 2456.79-90.87L2456.79-90.87L2456.79-90.87Q2459.57-94.82 2463.18-97.61L2463.18-97.61L2463.18-97.61Q2466.80-100.39 2470.75-102.15L2470.75-102.15L2470.75-102.15Q2474.71-103.91 2478.76-104.74L2478.76-104.74L2478.76-104.74Q2482.81-105.57 2486.33-105.57L2486.33-105.57L2543.65-105.57ZM2661.13-70.61L2661.13-34.96L2661.13-34.96Q2661.13-29.69 2659.28-23.58L2659.28-23.58L2659.28-23.58Q2657.42-17.48 2653.27-12.26L2653.27-12.26L2653.27-12.26Q2649.12-7.03 2642.43-3.52L2642.43-3.52L2642.43-3.52Q2635.74 0 2626.17 0L2626.17 0L2580.37 0L2580.37 0Q2575.10 0 2568.99-1.86L2568.99-1.86L2568.99-1.86Q2562.89-3.71 2557.67-7.86L2557.67-7.86L2557.67-7.86Q2552.44-12.01 2548.93-18.70L2548.93-18.70L2548.93-18.70Q2545.41-25.39 2545.41-34.96L2545.41-34.96L2545.41-34.96Q2545.41-40.23 2547.27-46.39L2547.27-46.39L2547.27-46.39Q2549.12-52.54 2553.27-57.76L2553.27-57.76L2553.27-57.76Q2557.42-62.99 2564.11-66.50L2564.11-66.50L2564.11-66.50Q2570.80-70.02 2580.37-70.02L2580.37-70.02L2626.17-70.02L2626.17-45.80L2580.37-45.80L2580.37-45.80Q2575.20-45.80 2572.36-42.63L2572.36-42.63L2572.36-42.63Q2569.53-39.45 2569.53-34.77L2569.53-34.77L2569.53-34.77Q2569.53-29.79 2572.80-27.00L2572.80-27.00L2572.80-27.00Q2576.07-24.22 2580.57-24.22L2580.57-24.22L2626.17-24.22L2626.17-24.22Q2631.35-24.22 2634.18-27.34L2634.18-27.34L2634.18-27.34Q2637.01-30.47 2637.01-35.16L2637.01-35.16L2637.01-70.61L2637.01-70.61Q2637.01-75.59 2633.94-78.52L2633.94-78.52L2633.94-78.52Q2630.86-81.45 2626.17-81.45L2626.17-81.45L2570.41-81.45L2570.41-105.57L2626.17-105.57L2626.17-105.57Q2631.45-105.57 2637.55-103.71L2637.55-103.71L2637.55-103.71Q2643.65-101.86 2648.88-97.71L2648.88-97.71L2648.88-97.71Q2654.10-93.55 2657.62-86.87L2657.62-86.87L2657.62-86.87Q2661.13-80.18 2661.13-70.61L2661.13-70.61ZM2797.66-70.02L2797.66 10.16L2797.66 10.16Q2797.66 16.70 2796.00 21.92L2796.00 21.92L2796.00 21.92Q2794.34 27.15 2791.60 31.10L2791.60 31.10L2791.60 31.10Q2788.87 35.06 2785.25 37.84L2785.25 37.84L2785.25 37.84Q2781.64 40.63 2777.69 42.38L2777.69 42.38L2777.69 42.38Q2773.73 44.14 2769.68 44.97L2769.68 44.97L2769.68 44.97Q2765.63 45.80 2762.01 45.80L2762.01 45.80L2716.21 45.80L2716.21 20.41L2762.01 20.41L2762.01 20.41Q2767.19 20.41 2769.73 17.77L2769.73 17.77L2769.73 17.77Q2772.27 15.14 2772.27 10.16L2772.27 10.16L2772.27-70.02L2772.27-70.02Q2772.27-75 2769.73-77.59L2769.73-77.59L2769.73-77.59Q2767.19-80.18 2762.01-80.18L2762.01-80.18L2716.21-80.18L2716.21-80.18Q2711.52-80.18 2708.79-77.29L2708.79-77.29L2708.79-77.29Q2706.05-74.41 2706.05-70.02L2706.05-70.02L2706.05-35.64L2706.05-35.64Q2706.05-30.66 2708.69-28.03L2708.69-28.03L2708.69-28.03Q2711.33-25.39 2716.41-25.39L2716.41-25.39L2762.01-25.39L2762.01 0L2716.21 0L2716.21 0Q2712.60 0 2708.59-0.83L2708.59-0.83L2708.59-0.83Q2704.59-1.66 2700.63-3.42L2700.63-3.42L2700.63-3.42Q2696.68-5.18 2693.07-7.96L2693.07-7.96L2693.07-7.96Q2689.45-10.74 2686.72-14.70L2686.72-14.70L2686.72-14.70Q2683.98-18.65 2682.32-23.88L2682.32-23.88L2682.32-23.88Q2680.66-29.10 2680.66-35.64L2680.66-35.64L2680.66-70.02L2680.66-70.02Q2680.66-73.63 2681.49-77.64L2681.49-77.64L2681.49-77.64Q2682.32-81.64 2684.08-85.60L2684.08-85.60L2684.08-85.60Q2685.84-89.55 2688.62-93.16L2688.62-93.16L2688.62-93.16Q2691.41-96.78 2695.36-99.51L2695.36-99.51L2695.36-99.51Q2699.32-102.25 2704.49-103.91L2704.49-103.91L2704.49-103.91Q2709.67-105.57 2716.21-105.57L2716.21-105.57L2762.01-105.57L2762.01-105.57Q2765.63-105.57 2769.68-104.74L2769.68-104.74L2769.68-104.74Q2773.73-103.91 2777.69-102.15L2777.69-102.15L2777.69-102.15Q2781.64-100.39 2785.25-97.61L2785.25-97.61L2785.25-97.61Q2788.87-94.82 2791.60-90.87L2791.60-90.87L2791.60-90.87Q2794.34-86.91 2796.00-81.74L2796.00-81.74L2796.00-81.74Q2797.66-76.56 2797.66-70.02L2797.66-70.02ZM2934.47-70.61L2934.47-70.61L2934.47-70.61Q2934.47-65.33 2932.62-59.23L2932.62-59.23L2932.62-59.23Q2930.76-53.13 2926.61-47.90L2926.61-47.90L2926.61-47.90Q2922.46-42.68 2915.77-39.16L2915.77-39.16L2915.77-39.16Q2909.08-35.64 2899.51-35.64L2899.51-35.64L2853.71-35.64L2853.71-59.77L2899.51-59.77L2899.51-59.77Q2904.69-59.77 2907.52-62.94L2907.52-62.94L2907.52-62.94Q2910.35-66.11 2910.35-70.80L2910.35-70.80L2910.35-70.80Q2910.35-75.78 2907.18-78.61L2907.18-78.61L2907.18-78.61Q2904.00-81.45 2899.51-81.45L2899.51-81.45L2853.71-81.45L2853.71-81.45Q2848.54-81.45 2845.70-78.27L2845.70-78.27L2845.70-78.27Q2842.87-75.10 2842.87-70.41L2842.87-70.41L2842.87-34.96L2842.87-34.96Q2842.87-29.88 2846.04-27.05L2846.04-27.05L2846.04-27.05Q2849.22-24.22 2853.91-24.22L2853.91-24.22L2899.51-24.22L2899.51 0L2853.71 0L2853.71 0Q2848.44 0 2842.33-1.86L2842.33-1.86L2842.33-1.86Q2836.23-3.71 2831.01-7.86L2831.01-7.86L2831.01-7.86Q2825.78-12.01 2822.27-18.70L2822.27-18.70L2822.27-18.70Q2818.75-25.39 2818.75-34.96L2818.75-34.96L2818.75-70.61L2818.75-70.61Q2818.75-75.88 2820.61-81.98L2820.61-81.98L2820.61-81.98Q2822.46-88.09 2826.61-93.31L2826.61-93.31L2826.61-93.31Q2830.76-98.54 2837.45-102.05L2837.45-102.05L2837.45-102.05Q2844.14-105.57 2853.71-105.57L2853.71-105.57L2899.51-105.57L2899.51-105.57Q2904.79-105.57 2910.89-103.71L2910.89-103.71L2910.89-103.71Q2916.99-101.86 2922.22-97.71L2922.22-97.71L2922.22-97.71Q2927.44-93.55 2930.96-86.87L2930.96-86.87L2930.96-86.87Q2934.47-80.18 2934.47-70.61Z" fill="#fcff15"></path></g></g><style>text {
  font-size: 64px;
  font-family: Arial Black;
  dominant-baseline: central;
  text-anchor: middle;
}</style></svg>